<svg width="36" height="36" viewBox="0 0 36 36" fill="none" xmlns="http://www.w3.org/2000/svg">
<path d="M30.92 1H5.08C2.82668 1 1 2.82668 1 5.08V30.92C1 33.1733 2.82668 35 5.08 35H30.92C33.1733 35 35 33.1733 35 30.92V5.08C35 2.82668 33.1733 1 30.92 1Z" stroke="#776F40" stroke-width="2" stroke-miterlimit="10"/>
<path d="M22.2764 11.2832V12.8838H16.7246C16.2446 12.8838 15.8508 13.2779 15.8506 13.7578V16.5889C15.8507 17.0689 16.2445 17.4629 16.7246 17.4629H21.8945V19.0635H16.7246C16.2446 19.0635 15.8507 19.4575 15.8506 19.9375V24.6992H13.7227V11.292H14.0967V11.2832H22.2764Z" fill="#776F40" stroke="#776F40"/>
</svg>
