<svg width="36" height="36" viewBox="0 0 36 36" fill="none" xmlns="http://www.w3.org/2000/svg">
<path d="M22.4521 14.3945L22.4619 14.3955H22.4707C24.2083 14.3956 25.1265 14.9575 25.6494 15.7881C26.2057 16.6716 26.3818 17.9564 26.3818 19.5391V25.542H23.7012V20.2783C23.7012 19.6165 23.7084 18.7276 23.4287 18.0088C23.2828 17.634 23.0501 17.2789 22.6807 17.0215C22.3104 16.7637 21.8456 16.6338 21.2891 16.6338C20.7458 16.6338 20.2809 16.7401 19.8945 16.9541C19.5054 17.1697 19.2255 17.478 19.0293 17.833C18.6498 18.52 18.5791 19.3935 18.5791 20.1768V25.542H15.8984V14.6924H18.4346V16.3076H19.2715L19.417 16.0605C20.0462 14.9873 21.2075 14.3502 22.4521 14.3945Z" fill="#776F40" stroke="#776F40"/>
<path d="M12.5869 14.6914V25.54H9.90625V14.6914H12.5869Z" fill="#776F40" stroke="#776F40"/>
<path d="M11.251 8.80078C12.153 8.80094 12.8838 9.53251 12.8838 10.4346C12.8836 11.3365 12.1529 12.0672 11.251 12.0674C10.3489 12.0674 9.61734 11.3366 9.61719 10.4346C9.61719 9.53241 10.3488 8.80078 11.251 8.80078Z" fill="#776F40" stroke="#776F40"/>
<path d="M30.92 1H5.08C2.82667 1 1 2.82668 1 5.08V30.92C1 33.1733 2.82667 35 5.08 35H30.92C33.1733 35 35 33.1733 35 30.92V5.08C35 2.82668 33.1733 1 30.92 1Z" stroke="#776F40" stroke-width="2" stroke-miterlimit="10"/>
</svg>
