<svg width="36" height="36" viewBox="0 0 36 36" fill="none" xmlns="http://www.w3.org/2000/svg">
<path d="M30.92 1H5.08C2.82668 1 1 2.82668 1 5.08V30.92C1 33.1733 2.82668 35 5.08 35H30.92C33.1733 35 35 33.1733 35 30.92V5.08C35 2.82668 33.1733 1 30.92 1Z" stroke="#776F40" stroke-width="2" stroke-miterlimit="10"/>
<path d="M17.9999 26.0564C22.0934 26.0564 25.4119 22.738 25.4119 18.6444C25.4119 14.5509 22.0934 11.2324 17.9999 11.2324C13.9064 11.2324 10.5879 14.5509 10.5879 18.6444C10.5879 22.738 13.9064 26.0564 17.9999 26.0564Z" stroke="#776F40" stroke-width="3" stroke-miterlimit="10"/>
<path d="M28.2861 6.38672C28.9205 6.38694 29.4346 6.9017 29.4346 7.53613C29.4343 8.17038 28.9204 8.68435 28.2861 8.68457C27.6517 8.68457 27.1369 8.17052 27.1367 7.53613C27.1367 6.90156 27.6516 6.38672 28.2861 6.38672Z" fill="#F1EEEB" stroke="#776F40"/>
</svg>
