<svg width="41" height="50" viewBox="0 0 41 50" fill="none" xmlns="http://www.w3.org/2000/svg">
<g clip-path="url(#clip0_40_245)">
<path d="M29.4842 31.9554C29.5478 32.1028 29.5312 32.2748 29.44 32.4085C29.2962 32.6132 29.1414 32.9217 29.1248 32.8398C29.0805 32.6242 28.4418 32.414 28.8096 31.445C28.6741 31.7098 28.3976 31.879 28.0934 31.8763H27.5957C27.5487 32.0482 27.745 31.939 27.781 31.9991C27.8501 32.1165 27.8003 32.2775 27.8086 32.4085L27.8529 32.373C27.9856 32.2639 28.1736 32.2502 28.3201 32.3403L28.5414 32.4768C28.6243 32.7552 28.2566 32.8944 28.2538 32.9954C28.251 33.0964 28.6685 33.4976 28.439 33.7979L28.2261 33.7624C27.7312 33.6805 27.3192 33.3093 27.2418 32.8207C27.228 32.7333 27.181 32.6624 27.0731 32.6214L26.9957 32.8452C26.9487 32.9845 26.8574 33.11 26.7385 33.2001L26.2408 33.5795C26.133 33.6614 25.9837 33.5631 26.0113 33.4321V33.4266C26.0611 33.1783 25.9643 32.9353 26.0915 32.6515C26.2298 32.343 26.7413 32.3512 26.6445 32.1465C26.2878 31.7916 25.7487 32.1792 25.3809 31.7698C25.3726 32.3567 25.1459 32.9708 24.5708 33.0527C24.4491 33.0691 24.3468 32.9572 24.3744 32.8398L24.5901 31.879C24.1035 32.2284 23.6804 32.5559 23.2684 33.0008C22.602 33.7242 21.5154 35.0207 21.1863 35.9242C21.0564 36.2763 20.9154 36.6339 20.9513 37.0242C21.1504 37.0706 21.2002 36.9096 21.3191 36.8113C22.1292 36.1344 22.9587 34.9743 23.979 34.584C25.2399 34.1008 26.0058 34.7177 27.2307 34.6713C27.4796 34.6604 28.9312 34.3984 29.0225 34.2401C29.1662 33.9862 28.934 33.7023 29.2907 33.4403C29.7497 33.1018 30.0428 33.5195 30.2778 33.4949C30.3607 33.4867 30.358 33.2793 30.4465 33.2219C30.5737 33.14 30.7617 33.1974 30.8446 33.1428C31.0078 33.039 30.8363 32.4686 31.6575 32.6269C31.9617 32.6842 32.053 33.0309 32.0198 33.312L31.8926 33.3966C31.8235 33.443 31.7405 33.4621 31.6603 33.4567L31.3949 33.4321C31.5193 33.8961 31.5525 33.9753 31.84 34.0353C32.0198 34.0708 32.1497 34.2264 32.158 34.4066L32.1801 34.8815L32.2631 34.8269C32.3737 34.7532 32.523 34.7559 32.6253 34.8433C33.0262 35.1818 33.8419 34.5103 33.8309 35.1845L34.0106 35.2309C34.1848 35.2746 34.312 35.422 34.3313 35.5966L34.3922 36.1753L34.4392 36.189C34.7765 36.279 35.0254 36.5574 35.0807 36.8959V36.9177L34.4613 36.6175C34.5581 37.1061 34.0687 37.5701 34.3175 38.0505L34.2456 38.1488L33.6152 38.318C33.2004 38.4299 32.7995 38.348 32.5507 37.8813C32.4013 37.9659 32.2354 38.0232 32.064 38.0478L31.923 38.0696L31.9175 37.9686C31.9036 37.7666 31.9341 37.5646 32.0115 37.3763L32.0225 37.3463C31.9423 37.2671 31.37 37.7503 30.9608 37.5101C30.7949 37.3736 31.0575 37.0351 30.9608 36.9259C30.8999 36.8577 30.3718 36.8686 30.4409 36.2736C30.0068 36.855 29.2686 36.7785 29.2851 36.0033C29.2907 35.7495 29.6446 35.6894 29.6004 35.4192C28.5662 34.8433 27.3994 35.1981 26.2795 35.0944C25.3975 35.0125 24.9551 34.6004 23.9846 35.0152C23.4952 35.2254 21.402 37.2071 21.1145 37.6738C20.9209 37.9877 20.9347 38.2225 20.9458 38.5855C20.9983 40.4525 21.2804 42.7126 21.6177 44.5523C21.7338 45.1801 22.2205 47.5958 22.5827 47.967C22.8039 48.1935 23.7412 47.9424 23.979 48.5839L29.3875 50.0005C28.3146 49.9814 27.239 50.0305 26.1662 50.006C23.0362 49.9377 20.1522 49.8449 16.9973 49.8995C14.5171 49.9405 12.0368 49.9841 9.55659 50.0005L14.918 48.6439C15.3079 48.2072 15.9908 48.2536 16.342 48.0543C16.8203 47.7786 17.4204 44.8034 17.542 44.1265C18.131 40.8319 18.637 36.1944 16.4581 33.3939C15.7558 32.4931 15.0839 32.2147 13.9364 32.2011C13.6212 32.1983 13.8341 32.6323 13.7788 32.848C13.3032 32.6596 13.1816 33.1346 13.0682 33.1701C12.8857 33.2274 12.529 33.151 12.2995 33.2792L12.3603 33.9262C12.1889 34.1718 11.5059 33.6614 11.5612 34.5649C11.1824 34.5485 10.9999 34.2455 10.5797 34.352C10.5299 34.3656 10.4276 34.7205 10.0847 34.5649L10.1898 34.8842C9.74185 34.8515 9.20267 35.1545 8.78514 34.8924C8.6856 34.8296 8.67454 34.614 8.54735 34.584C8.42016 34.554 8.08559 34.7205 7.86992 34.5649L8.08006 35.2063C7.84503 35.1681 7.59894 35.321 7.3888 35.321C7.13442 35.321 6.5897 34.6386 6.13071 34.5621C5.83208 34.513 6.11412 34.9306 5.9648 35.0917C5.54452 35.1681 5.2293 34.9907 4.96939 34.6713C4.81731 34.6713 4.92515 35.209 4.46062 35.1736C3.85231 35.1272 3.97674 34.7123 3.75001 34.5157C3.59793 34.382 3.29378 34.442 3.24401 34.0544C3.17765 33.5467 4.10117 33.0909 3.86338 32.6351C4.55187 32.9435 4.42744 32.5477 4.67077 32.4413C4.85879 32.3594 5.22377 32.3785 5.44221 32.3103C5.4118 32.1083 4.96386 32.1956 4.91962 31.9254C4.87538 31.6552 5.51963 31.344 5.75743 31.3467C5.78784 31.1284 5.21548 31.2294 5.33714 30.9755C5.52793 30.577 6.03946 30.9427 6.34914 30.7135C6.63118 30.5033 6.27725 30.1621 6.43486 29.9492L7.12889 29.7417C6.92704 29.144 6.5897 28.4916 5.9178 28.3469C5.85973 28.3469 5.79614 29.1713 5.48645 29.305C5.127 29.4579 5.22101 28.9283 4.96663 28.7782L4.3362 29.2068L4.01822 28.4561C3.76936 28.6581 3.5924 29.3951 3.3629 29.5343C3.197 29.6353 2.76012 29.6926 2.52786 29.5998C2.3979 29.5479 2.38131 29.3733 2.49192 29.2914L2.50851 29.2804C2.68823 29.1522 2.7463 28.9038 2.6274 28.7209C2.56104 28.6199 2.54998 28.4971 2.59146 28.2432C2.43385 28.5025 1.96932 28.7236 1.84766 28.9338C1.70388 29.1822 1.83937 29.5998 1.59328 29.5288C1.10387 29.3869 0.777591 28.4097 0.799712 27.9211L0.785886 27.9266C0.572978 27.9839 0.401546 28.145 0.329655 28.3497C0.0448559 28.1286 -0.154227 27.3261 0.166518 27.1132C0.329655 27.004 0.65593 27.1432 0.799712 26.903C0.0642112 26.4745 0.36007 26.0241 1.01262 25.7238L0.484497 25.672C0.484497 25.3417 0.376661 24.9459 0.802477 24.9186C0.628279 24.6457 0.448552 24.632 0.503852 24.2526C0.611689 23.5265 1.10663 23.8541 1.54074 23.4747C-0.278654 23.3027 1.85596 22.6558 1.60157 22.1372C1.3859 21.6977 0.766531 22.0799 0.697405 22.028L0.852247 21.0618L1.85596 20.5814C1.22829 20.6414 0.990499 20.1392 1.48268 19.7679C1.76195 19.5578 2.02739 19.8553 2.31219 19.7843C2.43661 19.7543 2.36472 19.4431 2.75459 19.4459C3.08916 19.4459 3.35737 19.9017 3.7583 19.7789L3.65323 19.1429C4.13158 19.061 4.40256 18.5997 4.91685 18.7089L4.33067 18.3923L4.60441 17.6935L4.28366 17.3714L5.33991 16.9947L5.27908 16.457L6.08094 16.3041L6.17218 16.1786C5.93162 15.5453 6.56205 15.185 7.13165 15.3379L7.23119 15.2314C6.88833 14.1778 7.81185 14.7265 7.86992 14.7019C7.99434 14.6446 8.14919 14.3279 8.29573 14.2624C8.56671 14.1396 8.65519 14.2324 9.16396 13.9704C9.31327 13.8939 9.57871 13.9267 9.64231 13.8694C9.72526 13.793 9.58977 13.5282 9.92711 13.4572C10.693 13.2989 10.6377 13.7684 10.9308 13.9403C11.4921 14.2706 12.0811 14.2652 12.5097 13.7302L11.9373 13.7711C11.6387 13.7848 11.6304 13.7165 11.658 13.5746C11.694 13.389 11.8322 13.2389 12.0147 13.1843L12.5124 13.0341C12.3106 12.3654 11.8212 12.9686 11.329 12.8076L11.517 12.3845L11.2571 12.2972C11.0746 12.2371 10.9419 12.0651 10.9502 11.8741C10.9668 11.4646 11.5447 11.6284 11.9843 11.7431C11.6829 11.2927 11.0442 11.32 10.6128 11.5301L10.823 12.0624C10.6654 12.1989 10.2534 12.0488 10.2091 12.0761C10.1677 12.1006 10.0322 12.5455 9.8248 12.5728C9.53724 12.6083 9.62572 11.8959 8.98146 12.682C8.44505 12.2808 8.29297 12.6711 7.92245 13.0287C7.42198 12.7967 7.48281 12.1825 7.87268 11.8522L6.92427 12.0651C6.76667 11.3336 7.2782 11.3991 7.5547 11.148C7.66807 11.047 7.63489 10.8805 7.69295 10.8095C7.81462 10.6567 8.64413 10.512 8.1243 10.1463C7.9501 10.0262 7.79526 10.1326 7.76208 9.87058C7.65701 9.06536 8.04411 9.1336 8.29573 8.52764H7.34732C7.23119 7.65418 8.20449 7.90257 8.61371 7.45492H7.77038C7.70678 6.63606 8.57777 6.92539 8.8045 6.78618C8.8598 6.75343 8.86257 6.53779 8.99529 6.49685C9.11695 6.46136 9.28838 6.59238 9.46258 6.54871C9.68931 6.49139 9.95199 6.10652 10.2921 6.15565L10.364 5.61793C10.6571 5.4214 10.9363 5.63704 11.1907 5.62339C11.4285 5.61247 11.7133 5.37773 11.9262 5.40776C12.0009 5.41867 11.9622 5.9291 12.4101 5.36135L11.6774 5.19758C11.5364 4.2204 12.1419 3.81915 13.0461 3.91196L12.4073 3.4261C12.388 3.306 12.753 2.65363 12.8249 2.58812C13.071 2.35884 13.5521 2.62634 13.7401 2.59358C13.8535 2.57448 13.8866 2.31517 14.0719 2.21964C14.3622 2.07224 15.3853 2.13502 14.6221 1.70921C14.6111 1.56727 14.9235 1.12781 15.0535 1.06776C15.2747 0.969499 15.4074 1.10052 15.5291 1.08141C15.6507 1.0623 15.7199 0.868505 15.8636 0.824832C16.0683 0.764782 17.1687 0.480908 17.3264 0.478179C18.189 0.461801 19.0047 1.02682 19.7679 0.172468L20.3264 0.374455L20.2213 0.0550974C20.6333 -0.089569 20.7578 0.336242 20.9624 0.429047C21.2002 0.538229 22.1624 0.461801 21.861 1.02409C21.7476 1.237 21.3993 1.14419 21.4877 1.44717C22.8039 1.40077 22.2951 2.09681 22.5606 2.50351C22.5993 2.56356 23.1412 2.65636 23.3375 2.83924C23.5615 3.04669 23.5781 3.46158 23.697 3.54893C23.9071 3.69905 24.9247 3.24595 25.2841 3.70178L25.2344 3.27324C25.5247 3.19955 25.9146 3.64719 26.0777 3.66084C26.2713 3.67722 26.769 3.35513 27.0786 3.48615C26.8657 4.47971 28.4639 4.06209 28.24 5.20304L27.7063 5.24944L27.6068 5.73803C27.7948 5.79808 27.8584 5.57699 27.9994 5.54696C28.2095 5.50056 28.4197 5.55515 28.6022 5.51694C28.9976 5.43505 29.3349 5.1812 29.8216 5.30676L29.8796 4.9874C30.3663 4.88641 30.5737 5.42413 30.6207 5.4214C30.8419 5.4214 31.2013 5.00378 31.5055 5.48145L31.4059 5.94821C32.252 6.00553 31.8953 6.18295 32.0889 6.48593C32.1884 6.64425 32.5534 6.60876 32.6502 6.7234C32.7276 6.81894 32.7 7.111 32.8272 7.23929C33.0124 7.42763 33.759 7.28569 33.7286 7.98446L33.3083 8.03905C33.9276 8.30927 33.6263 8.6532 33.7507 9.08993C33.8281 9.36561 34.4281 9.67678 34.1378 10.3291L33.5212 10.6103C34.0161 11.0961 34.8733 10.8341 34.7876 11.844C35.0696 11.7185 35.7802 11.6257 35.6281 12.1115C35.5811 12.2617 35.2853 12.2043 35.3129 12.379C36.206 12.5292 36.3719 12.8731 36.2613 13.7738C36.007 13.793 35.7692 13.8994 35.5839 14.0741L34.9977 14.6337C35.4125 14.5054 36.2696 14.1014 36.5268 14.6337C36.7922 15.1796 36.253 15.0677 36.0512 15.3843C36.5019 15.6218 37.4088 15.3297 37.7406 15.6518C38.183 16.083 37.2982 16.2523 37.3176 16.296C37.6356 16.6371 38.1222 16.4652 38.1692 17.0466C38.2439 17.9801 37.4752 18.496 37.2098 17.4233L37.2429 17.9664C36.5572 18.2558 35.8604 17.3523 35.418 17.4233L35.371 17.9664C34.9175 18.2367 34.5387 18.0183 34.2567 17.6389L33.9857 18.7062C34.4281 19.2875 35.2466 18.9736 35.3102 19.9945C35.559 19.9208 35.1664 19.2057 35.4152 19.031C35.9738 18.9928 36.0733 19.3967 36.3166 19.7789C36.56 19.7461 36.7342 19.5359 36.9692 19.4841C37.7075 19.3176 37.2678 19.7461 37.5222 19.9508C38.2853 19.6861 38.0531 20.3766 38.7913 20.2101C38.8411 20.2538 38.6255 20.7206 38.5701 20.7888C38.3711 21.0263 38.1029 20.8461 38.1609 21.1737L38.1775 21.1682C38.3434 21.1082 38.5176 21.0699 38.6918 21.0508L39.0015 21.0208L39.0181 21.1518C39.0374 21.2965 39.0374 21.4439 39.0236 21.5913L39.0015 21.8206C39.5573 21.5312 40.4587 21.3675 40.373 22.2491H39.8448C39.7702 22.5767 40.0522 22.4102 40.2126 22.5685C40.5803 22.937 40.2015 23.2045 40.0882 23.5129C39.9527 23.8814 40.1186 24.3864 39.4909 24.1653C39.3001 24.097 39.3941 23.8404 39.2144 23.8596C39.1508 24.0534 39.1867 24.3645 38.8992 24.2881L38.689 23.8596C38.6946 24.2826 38.4568 24.4491 38.0559 24.3945L38.042 24.3645C38.0033 24.2826 37.9729 24.1953 37.9591 24.1052C37.9259 23.9032 37.7821 23.8568 37.5277 23.8568C37.6522 24.6402 36.7203 23.8132 36.6844 23.8568L36.7895 24.2854L36.1563 24.1789C36.3609 24.6075 37.4254 24.1434 37.3231 24.8722C37.3148 24.9323 37.019 24.8941 37.1074 25.0879C37.3093 25.5191 37.937 25.1916 38.0641 25.2926L38.1637 25.6774C38.49 25.4045 38.7831 25.298 39.2172 25.3553L39.007 26.2124C39.9831 25.874 39.4798 26.6792 39.5324 26.7474C40.008 26.6819 39.972 27.1814 40.0826 27.2633C40.2762 27.408 40.8485 27.1951 40.8872 27.6837C40.9343 28.2514 40.1766 28.0139 40.0826 28.3142L40.0605 28.9993C40.4061 29.043 41.0587 29.0867 41.0172 29.5889C40.9868 29.9547 40.5665 29.7636 40.3812 30.0256C40.2209 30.2549 40.2568 30.8499 40.1628 31.1447C39.7066 31.082 39.7646 30.446 39.4163 30.1348C39.2669 30.0011 39.0319 29.9246 38.8439 29.8564C38.3932 29.9164 39.2089 30.1594 39.2531 30.1921C39.5047 30.3695 39.6762 30.8117 39.372 31.0356C38.9987 30.4405 38.1692 30.7107 37.5277 30.6097L38.0476 30.9946L37.7379 31.8954C38.5674 31.748 38.902 32.7743 37.8955 32.7634C37.2485 32.7552 36.936 32.3157 36.9996 31.6825C36.8226 31.4723 36.2116 32.7279 35.5231 32.3812C35.0696 32.1519 35.4512 31.1229 35.418 30.7189C34.9618 31.0083 34.5332 31.4477 33.9415 31.3631V30.8254H33.5184L33.6235 30.0748C32.9378 30.4405 32.3073 29.9437 32.252 29.2177L31.829 29.911C31.2732 30.2686 30.4658 30.2549 30.2474 29.537C29.5091 30.5797 28.9506 30.4159 27.8224 30.1812C27.7616 30.4924 27.9137 30.3532 28.0547 30.4214C28.2455 30.5169 28.8787 30.4896 29.0639 30.8472C29.0805 30.88 29.299 31.4859 29.299 31.5214L29.5008 31.9827L29.4842 31.9554ZM25.3809 12.7857L25.2233 12.1443C23.3735 13.2116 25.1293 14.2433 24.9496 15.7282C24.9191 15.9848 24.7588 16.1813 24.7477 16.4324L27.0206 16.0094C27.1118 15.9384 27.7865 14.2788 27.8058 14.126C27.839 13.8585 27.2943 13.9458 27.1201 13.8585C27.1257 14.3552 26.6445 14.2624 26.4565 13.9021L26.5339 13.4408L25.9007 13.146L26.1192 12.3599C25.6795 12.2235 25.7929 12.8185 25.3809 12.7885V12.7857ZM23.0362 13.0259C22.8813 12.9359 22.5191 13.0369 22.32 13.0041L22.7403 13.3808C22.779 13.5719 21.9716 13.853 22.5772 14.2542L23.05 14.1887L23.379 15.4662C23.7661 15.3843 23.9099 15.3106 24.1643 15.6818L24.3136 15.1577L23.5283 14.8302C23.3403 14.4753 23.7468 14.317 23.6776 13.9431C23.6611 13.8475 23.0859 13.056 23.0362 13.0287V13.0259ZM28.9644 14.8247C28.3948 15.0731 27.7091 15.084 27.8058 15.8947C28.3478 15.8128 28.9478 15.4225 28.9644 14.8247ZM30.6538 15.3597C29.6695 15.0949 29.3404 15.8892 28.616 16.2359C28.2483 16.4106 27.734 16.4242 27.4326 16.6426C26.8879 17.0357 26.5809 18.4086 26.2215 19.0037C26.9183 18.6679 27.9994 18.6597 28.4225 17.9692C28.7266 17.4724 28.6658 16.7491 29.2824 16.4843C30.0124 16.1704 30.3442 16.4188 30.6538 15.3597ZM30.6538 16.861L30.8142 15.8974C30.3801 16.2468 30.3829 16.6754 30.5488 17.1776C30.1423 17.3305 29.7607 17.4069 29.4013 17.6771C28.6768 18.2203 28.898 18.6379 27.8086 19.1729C27.6565 19.2493 27.5459 19.1511 27.5985 19.4349C28.4612 19.667 28.6298 18.4414 29.3404 18.365C29.6197 18.3349 29.5063 19.0828 29.8575 19.0037C29.9294 18.9873 30.2004 18.698 30.2225 18.6106L30.04 18.0784L30.2004 17.8409C30.6124 17.7672 30.8474 17.9009 31.0299 18.2585H31.1847C31.2068 17.9391 31.3893 17.7508 31.6631 17.6171L31.8732 18.1521L32.8742 17.4014L31.7073 17.2486L31.6078 16.7572L30.6594 16.8637L30.6538 16.861ZM26.6445 16.7545C24.8887 16.6808 24.1035 17.4096 24.2251 19.2139C24.7256 19.2139 24.9662 19.3176 24.9606 19.8608C25.7182 18.9846 26.1109 17.7863 26.6473 16.7518L26.6445 16.7545ZM12.5097 19.6479C12.0617 19.596 12.2802 20.2211 12.0977 20.3521L11.5087 20.3412L10.823 20.7178C11.799 20.3876 11.9207 21.1791 12.6147 21.5749C12.2774 20.8543 12.1917 20.4094 12.5097 19.6451V19.6479ZM13.035 19.6479C12.8027 19.4786 12.5179 20.2484 12.5041 20.4531C12.4626 21.0372 12.8166 21.1764 12.9327 21.6841L13.776 21.201C13.8369 20.958 12.4156 20.5077 13.2479 20.0245L13.035 19.6479ZM12.5097 22.0062C12.6203 21.9052 11.5917 20.7096 11.246 20.9362L11.9401 21.5776L11.7742 22.0062H12.5124H12.5097ZM17.4618 21.2637L17.0471 21.2583C16.8563 21.4139 17.6084 21.6677 17.3623 21.8997C17.1356 22.1154 16.6185 21.4685 16.519 21.5804L16.624 22.4375L15.8858 22.3856L16.2093 23.7231C16.7844 23.5102 17.1107 23.431 17.6803 23.7258C17.1853 24.4628 17.8517 24.4 17.8932 23.9933C17.9568 23.3764 17.4121 21.9871 17.4618 21.2637ZM14.3042 21.3647C13.6654 21.2883 13.9613 21.9079 13.8811 22.2573C13.8562 22.3692 13.5659 22.2355 13.7152 22.6558C14.0332 23.5457 15.7033 23.603 15.153 22.937C15.0507 22.8114 14.824 22.8742 14.7272 22.705L15.2526 21.7933C14.871 22.0772 14.6387 22.5084 14.1023 22.2109L14.3042 21.3647ZM20.4204 24.3645L19.9476 22.7568C19.8785 22.9997 19.4305 23.2236 19.3835 23.3628C19.2868 23.6494 19.2951 24.9022 19.7872 24.8995L19.7817 24.3072L20.4177 24.3645H20.4204ZM14.8295 24.0452C14.4756 23.9551 14.0387 23.8077 13.7401 23.5975C13.1401 23.1772 13.2286 22.634 12.1917 22.866C11.9788 23.0789 12.9133 23.734 13.0903 23.936C13.2783 24.1543 13.4498 24.4491 13.6074 24.6975C13.8175 25.0223 14.4369 26.4499 14.5171 26.51C14.5641 26.5454 14.8323 26.3953 14.9816 26.4062C15.2111 26.4226 15.4074 26.6792 15.6729 26.6191L15.659 26.207C14.6719 25.8958 15.6977 25.9176 15.7807 25.44L15.0977 25.5464C14.8323 25.1233 15.5429 25.1479 15.6756 24.7958L14.8323 25.0087L15.1475 24.3673L14.6194 24.4737L14.8295 24.0479V24.0452ZM13.776 27.5827C13.9613 27.3943 13.035 24.471 12.1972 24.8449C11.7437 25.0496 11.6276 25.7784 11.6746 26.2315C11.799 27.4435 12.6977 27.0095 13.5659 27.0477C13.6737 27.4462 13.3364 27.3479 13.2507 27.5827H13.7788H13.776ZM10.3833 25.5628C10.3336 25.5191 9.70867 25.4891 9.55659 25.4372V25.8685L9.02847 25.6529L9.13354 26.1879H8.71049L8.81556 26.6164L8.3538 26.409L7.82844 26.7174L7.54641 26.1879C7.15654 26.308 6.92704 26.3817 6.60353 26.0814C6.5344 26.6492 7.0487 26.5755 7.36944 26.7502C7.82291 26.9985 7.91692 27.5581 8.08006 28.0112C8.42016 28.1067 8.29573 27.5636 8.56118 27.4817C8.87639 27.4025 8.90128 27.7355 9.07824 27.902C9.40728 27.5144 9.63125 27.2824 10.0792 27.6891L10.0958 27.277C10.5824 26.9385 10.6958 27.3315 10.9198 27.4162C11.105 27.4871 11.5806 27.1869 11.6608 27.741L11.4534 28.2241C11.5419 28.2924 12.5567 27.7492 12.5069 27.5308C12.2249 27.2688 11.8626 27.3752 11.5502 27.1077C11.2599 26.8566 11.1437 26.3544 11.1299 25.9804C10.3474 26.1551 10.5105 25.6856 10.3778 25.5655L10.3833 25.5628ZM7.31414 27.2879C7.11506 27.0995 6.07541 26.903 5.71595 26.6055C5.4671 26.398 5.51963 25.9722 5.26525 25.8849C4.81178 25.7266 4.10117 25.9777 3.6477 26.0841L4.07628 26.3571C4.10393 26.6109 4.0431 26.8675 3.90485 27.0832L3.85785 27.1541C4.34449 27.1023 4.64588 27.1405 4.70395 27.6918L4.71501 27.6755C5.0081 27.2933 5.48645 27.0968 5.96757 27.1569C5.77125 28.2705 6.26343 27.9921 6.76114 28.4425C7.01552 28.6718 7.26714 29.436 7.51599 29.5015C7.90863 29.6053 8.00817 29.1576 7.55194 29.0321L7.97775 28.7045C7.73166 28.4343 7.48005 27.4516 7.31138 27.2906L7.31414 27.2879ZM18.2858 26.6437C18.1033 26.4581 17.6582 26.5618 17.7826 25.975C17.5531 25.9941 17.6194 26.338 17.5586 26.3899C17.448 26.4827 16.9752 26.2807 16.8369 26.5645L17.5697 27.004L17.2572 27.4735C17.907 27.4953 17.9623 28.3333 18.5208 28.4397C18.3771 28.0358 18.5153 26.8784 18.2858 26.6437ZM28.016 26.51C27.2418 26.3571 27.4353 26.7065 27.1699 26.9904C26.8353 27.3452 26.6141 26.9822 26.4869 26.9794C26.404 26.9794 26.1275 27.266 25.9063 27.1541V26.6191L25.5358 27.2606C25.3256 27.3124 25.0546 26.8157 25.0602 26.6164C23.4122 27.4216 23.5809 29.5671 22.8703 30.8745C22.3643 31.8053 21.1642 32.5887 20.9486 33.7979C21.131 33.9726 22.0324 32.6815 22.1762 32.5232C22.4361 32.242 22.8315 31.9691 23.0555 31.707C23.9846 30.6261 23.5836 29.4688 25.3477 28.7837C25.9533 28.5489 26.9542 28.5544 27.3856 28.175C27.8086 27.801 28.0381 27.0695 28.0132 26.5072L28.016 26.51ZM22.7431 27.4762C22.4638 27.3971 22.4997 27.7574 22.3532 27.7983C22.1569 27.8529 21.7117 27.8665 21.7919 27.5827H21.6896C21.1615 29.3951 20.7965 31.2676 20.6333 33.1564L22.3007 30.8336C22.7044 30.1621 23.2574 28.4206 23.3763 27.6373C23.3846 27.5745 23.4039 27.4598 23.3237 27.4762C23.1385 27.7191 22.956 27.8502 22.638 27.7956L22.7431 27.4762ZM29.8105 28.4397C29.7746 28.2105 29.6778 27.872 29.3875 27.9048L28.8593 29.7254C29.2105 30.0529 30.8999 28.3824 30.1755 28.2241L29.8105 28.4397ZM18.5236 34.2291C18.413 32.545 17.9015 30.5906 17.2628 29.0266C17.2213 28.9283 16.8176 27.9157 16.6268 28.1204L16.8369 28.6008C16.6351 28.8792 16.2839 28.7236 16.0019 28.7755L15.8968 29.144C15.7779 29.5589 15.3493 29.7963 14.9401 29.6762L18.5264 34.2319L18.5236 34.2291ZM31.4972 28.9747L30.6594 29.1958C30.6953 30.0638 31.6686 29.8127 31.4972 28.9747ZM27.3828 29.5125C25.8371 29.0867 24.6648 29.6708 24.2196 31.2266C24.2804 31.2894 25.1846 30.8827 25.3118 30.7844C25.5358 30.6097 25.58 30.3095 25.9007 30.2058C26.3542 30.0584 26.7275 30.2467 27.1727 30.2631C26.8464 29.7199 27.3994 29.8973 27.3828 29.5152V29.5125ZM14.3042 30.1539C13.7677 30.3695 12.9576 30.4105 12.6175 30.9045L13.2949 30.7189C13.4747 30.6698 13.6682 30.7762 13.7042 30.9619C13.8037 31.4477 14.7853 31.5323 15.2553 31.5487C14.8738 31.1529 14.2737 30.7762 14.3042 30.1566V30.1539Z" fill="#E8E6DD"/>
</g>
<defs>
<clipPath id="clip0_40_245">
<rect width="41" height="50" fill="white"/>
</clipPath>
</defs>
</svg>
