<svg width="47" height="48" viewBox="0 0 47 48" fill="none" xmlns="http://www.w3.org/2000/svg">
<g clip-path="url(#clip0_40_231)">
<path d="M26.5473 26.9907L18.1341 30.6736V7.60562L6.8332 0L0 6.8342V48.0023H47V34.7501L26.5473 26.9907ZM44.5631 35.2614L45.9221 35.7772V37.32L44.5631 36.8902V35.2591V35.2614ZM43.4495 37.4263L45.063 37.9195V39.5279L43.4495 39.1388V37.4263ZM45.9221 40.6251V42.1861L44.5631 41.9553V40.3084L45.9221 40.6274V40.6251ZM43.4495 42.6611L45.063 42.9236V44.5456L43.4495 44.3872V42.6634V42.6611ZM45.9221 45.4799V46.7784L44.5631 46.7626V45.3577L45.9221 45.4821V45.4799ZM41.6597 34.1597L43.1795 34.7365V36.4558L41.6597 35.9762V34.1597ZM40.3833 36.4898L42.0659 37.0033V38.8018L40.3833 38.3946V36.4875V36.4898ZM43.1795 39.9827V41.7178L41.6597 41.4599V39.6275L43.1795 39.9827ZM40.3833 42.1634L42.0659 42.4349V44.247L40.3833 44.0818V42.1634ZM43.1795 45.231V46.7445L41.6597 46.7264V45.093L43.1795 45.231ZM38.6538 33.0195L40.2784 33.6348V35.5396L38.6538 35.0261V33.0195ZM31.7492 37.3087L34.0299 37.8426V40.1614L31.7492 39.7723V37.3087ZM29.5131 35.7681V33.1688L32.0036 33.9289V36.3699L29.5131 35.7681ZM37.2702 38.6004V40.7134L35.4135 40.3966V38.1661L37.2702 38.6004ZM37.0001 37.5779V35.4559L38.9997 36.0667V38.062L37.0001 37.5779ZM35.6165 37.2454L33.3872 36.7069V34.3542L35.6165 35.0352V37.2454ZM32.0036 40.8061V43.2584L29.5131 43.014V40.4012L32.0036 40.8038V40.8061ZM31.7492 44.1927L34.0299 44.4008V46.6336L31.7492 46.6065V44.1949V44.1927ZM33.3872 43.3964V41.0323L35.6165 41.3943V43.6181L33.3872 43.3986V43.3964ZM35.4112 44.5252L37.2679 44.6949V46.6721L35.4112 46.6495V44.5252ZM37.0001 43.7515V41.616L38.9997 41.9395V43.9461L37.0001 43.7493V43.7515ZM38.6538 44.8193L40.2784 44.9664V46.7083L38.6538 46.6879V44.8193ZM38.6538 40.9486V38.9239L40.2784 39.304V41.2246L38.6538 40.9486ZM35.4112 31.7889L37.2679 32.4924V34.5872L35.4112 34.0013V31.7866V31.7889ZM31.7492 30.3999L34.0299 31.264V33.5647L31.7492 32.8453V30.3976V30.3999ZM27.9152 28.9475L30.3633 29.8773V32.4132L27.9152 31.6396V28.9475ZM27.9152 36.4129L30.3633 36.9852V39.537L27.9152 39.1207V36.4129ZM27.9152 43.8443L30.3633 44.066V46.5861L27.9152 46.5567V43.8443ZM17.0785 31.1351L15.7641 31.7097L15.7597 29.8298L17.0763 30.1239V31.1351H17.0785ZM17.0741 29.09L15.7574 28.7959L15.744 21.8486L17.0585 22.3327L17.0718 29.09H17.0741ZM17.0562 21.2582L15.7418 20.7741L15.7284 14.3674L17.0428 15.0732L17.0562 21.2582ZM17.0294 8.51051L17.0406 13.9308L15.7262 13.225L15.715 7.64181L17.0294 8.51051ZM14.5702 32.2345L13.2558 32.8091L13.2491 29.2687L14.5657 29.5628L14.5724 32.2345H14.5702ZM14.5635 28.529L13.2469 28.2349L13.2312 20.9279L14.5457 21.412L14.5613 28.5312L14.5635 28.529ZM14.5457 20.3352L13.2312 19.8511L13.2178 13.0214L14.5323 13.7272L14.5457 20.3352ZM14.5166 6.74371L14.53 12.5825L13.2156 11.8767L13.2045 5.87275L14.5189 6.74145L14.5166 6.74371ZM11.9726 33.3702L10.6582 33.9448L10.647 28.6828L11.9637 28.9769L11.9726 33.3679V33.3702ZM11.9614 27.9453L10.6448 27.6512L10.6292 19.9687L11.9436 20.4528L11.9592 27.9453H11.9614ZM11.9436 19.3783L10.6292 18.8941L10.6136 11.6256L11.928 12.3314L11.9436 19.3783ZM11.9123 4.97691L11.9257 11.1867L10.6113 10.4809L10.5979 4.10595L11.9123 4.97464V4.97691ZM9.26789 34.5556L8.71891 34.7954L8.72561 36.3495L7.9557 36.3292L7.94231 28.0788L9.25673 28.3729L9.26566 34.5556H9.26789ZM8.76131 45.0976L7.96909 45.1971L7.95793 37.3404L8.73007 37.3607L8.76131 45.0976ZM9.25673 27.3391L7.94231 27.045L7.92892 18.9756L9.24334 19.4597L9.25673 27.3391ZM9.24111 18.3851L7.92669 17.901L7.91553 10.18L9.22995 10.8859L9.24111 18.3851ZM9.21656 3.2101L9.22772 9.74116L7.9133 9.03535L7.90214 2.34141L9.21656 3.2101Z" fill="#E8E6DD"/>
</g>
<defs>
<clipPath id="clip0_40_231">
<rect width="47" height="48" fill="white"/>
</clipPath>
</defs>
</svg>
