<svg width="117" height="392" viewBox="0 0 117 392" fill="none" xmlns="http://www.w3.org/2000/svg">
<g clip-path="url(#clip0_489_9)">
<path d="M106.21 40.3701L105.63 30.6101C105.56 29.4501 105.14 28.3401 104.41 27.4301L85.1202 3.11012C84.3902 2.18012 83.4102 1.48012 82.3002 1.07012L79.5902 0.0601222C79.2802 -0.0598778 78.9302 0.0101222 78.6802 0.230122L58.8402 17.8201L47.5202 10.3401C46.0702 9.38012 44.4102 8.73012 42.6702 8.56012C37.5102 8.06012 32.7902 11.3501 31.5602 16.2201C29.4202 24.6601 32.9502 37.0301 41.4202 48.0201C41.5602 48.2101 41.7102 48.3901 41.8602 48.5701L39.9902 57.8401C33.0602 54.7601 24.9502 57.0001 22.1802 59.8301C14.5502 67.6201 15.6902 82.2501 27.2302 97.2201C28.4802 98.8401 29.7902 100.36 31.1402 101.78L27.0202 122.25C17.7002 119.75 8.75024 119.74 3.83024 125.45C-4.46976 135.07 1.21024 154.7 16.1302 167.58C16.6302 168.01 17.1302 168.43 17.6402 168.83L9.58024 208.87C8.86024 212.45 11.6402 215.78 15.2902 215.71L61.3302 214.85L58.9302 463.23H89.7402L87.2502 211.29L115.2 195.11C116.08 194.6 116.59 193.64 116.52 192.63L106.21 40.3601V40.3701ZM60.7902 166.1C53.8902 177.12 43.5902 183.51 36.0202 182.1C30.4702 176.17 29.7602 164.84 34.9002 154.26C37.8602 148.18 42.2002 143.46 46.9002 140.68L65.4202 156.19C64.3702 159.46 62.8302 162.82 60.7802 166.09L60.7902 166.1ZM65.2602 91.9701C60.1602 102.47 51.2502 109.09 43.5602 108.85C41.8502 103.38 42.5602 96.0401 45.9802 89.0101C48.7302 83.3401 52.7302 78.9401 56.9702 76.3801L67.7402 85.4001C67.1402 87.5801 66.3202 89.7901 65.2602 91.9701ZM67.0802 40.8101C63.2202 48.7601 57.2602 54.3601 51.8802 55.7801C50.4002 51.0401 51.0802 44.5301 54.1302 38.2501C56.3502 33.6801 59.4502 30.0201 62.7502 27.6801L69.7502 33.5401C69.1502 35.9201 68.2602 38.3701 67.0802 40.8101Z" fill="white"/>
</g>
<defs>
<clipPath id="clip0_489_9">
<rect width="116.53" height="463.23" fill="white"/>
</clipPath>
</defs>
</svg>
