<svg width="30" height="50" viewBox="0 0 30 50" fill="none" xmlns="http://www.w3.org/2000/svg">
<path d="M9.35826 30.3001C9.36618 30.2841 9.37567 30.2666 9.38675 30.249L9.48805 30.0686C9.70964 29.6137 9.59568 29.2721 9.38675 28.7964C9.13034 28.2138 8.52098 27.6391 10.1212 26.7181C11.2054 26.0955 11.7008 25.2926 11.9224 24.7626C9.79828 22.4656 9.94548 19.7487 9.94548 19.7487C10.0895 16.296 12.9623 13.137 17.0427 11.911C15.9426 9.44641 15.08 7.05998 14.5988 5.14126C14.3329 4.08293 14.1921 3.197 14.1794 2.51061C14.1652 1.68853 14.3504 0.612642 15.3143 0.16409C16.2798 -0.284463 17.2104 0.27104 17.8198 0.816965C18.3295 1.2719 18.9056 1.95511 19.5308 2.84582C20.74 4.5682 22.0696 6.96899 23.2741 9.60603C23.6334 10.393 23.9705 11.1752 24.2791 11.9398C27.2801 12.9231 29.5007 15.1243 29.9249 17.9513C30.0294 18.6521 30.0167 19.3497 29.9012 20.0281C29.1462 23.5175 25.4346 26.41 20.729 26.8633C20.5881 26.8777 20.4456 26.8873 20.3063 26.8968C19.9471 27.2257 19.3773 27.8945 19.5482 28.7182C19.7919 29.8978 20.1227 30.5715 19.1288 31.2371C18.3659 31.7479 17.4494 31.5244 16.7562 32.2843L15.482 34.1631C15.2763 34.4839 14.9676 34.7234 14.6083 34.8415L13.7568 35.0075L12.5523 37.1273C12.4748 37.2598 12.4415 37.4147 12.4605 37.5663L12.5776 38.1537C12.595 38.3022 12.565 38.4538 12.4922 38.5831L12.0632 39.3398C11.9873 39.4739 11.8701 39.5776 11.7293 39.6383L11.1959 39.8633C11.0598 39.9208 10.9442 40.0214 10.8682 40.1507L9.10502 43.1996L8.88343 44.1031C8.81537 44.3968 8.61594 44.641 8.34212 44.7623L6.88596 45.4216C6.8274 45.4471 6.7815 45.495 6.75617 45.5541L6.56149 45.8973C6.54567 45.9372 6.53934 45.9803 6.5425 46.0218L6.72294 47.6867C6.73718 47.8192 6.71027 47.9533 6.64696 48.0698L6.42379 48.4816C6.35415 48.6093 6.24494 48.7099 6.11357 48.7674L5.67197 48.9589L3.38011 49.955C3.29305 49.9933 3.19809 50.0061 3.1047 49.9933L2.269 49.8847L2.14712 49.7762L2.16137 49.4617L2.13288 49.3628L1.81315 49.1728L1.77042 49.2287L1.76725 49.6182L1.63747 49.6469L0.390236 48.4752C0.309513 48.3986 0.254116 48.2996 0.231958 48.1895L-0.000711441 46.9955L9.36143 30.2969L9.35826 30.3001ZM22.489 16.4429C22.9464 16.1523 23.2028 15.8107 23.1459 15.4963C23.0651 15.0605 22.4035 14.7955 21.5156 14.7843C21.8575 15.3989 22.1835 15.9528 22.489 16.4429ZM18.1395 16.4349C18.2187 16.8627 18.8581 17.1261 19.7223 17.1468C19.4137 16.6248 19.1034 16.0709 18.7932 15.4915C18.3374 15.782 18.081 16.122 18.1395 16.4365V16.4349ZM19.7397 11.2502C19.7635 11.3029 19.7872 11.3539 19.8109 11.405C20.2399 11.3747 20.6656 11.3683 21.0835 11.3811C20.9917 11.1752 20.8983 10.9677 20.8018 10.7553C19.4311 7.75755 18.1411 5.5962 17.1914 4.2681C17.5761 5.85958 18.3674 8.2508 19.7381 11.2502H19.7397Z" fill="#E5E0CA"/>
</svg>
