<svg width="30" height="50" viewBox="0 0 30 50" fill="none" xmlns="http://www.w3.org/2000/svg">
<g clip-path="url(#clip0_42_280)">
<path d="M9.36217 30.3001C9.37008 30.2841 9.37958 30.2666 9.39066 30.249L9.49196 30.0686C9.71354 29.6137 9.59959 29.2721 9.39066 28.7964C9.13425 28.2138 8.52488 27.6391 10.1251 26.7181C11.2093 26.0955 11.7047 25.2926 11.9263 24.7626C9.80218 22.4656 9.94938 19.7487 9.94938 19.7487C10.0934 16.296 12.9662 13.137 17.0466 11.911C15.9465 9.44641 15.0839 7.05998 14.6028 5.14126C14.3368 4.08293 14.196 3.197 14.1833 2.51061C14.1691 1.68853 14.3543 0.612642 15.3182 0.16409C16.2837 -0.284463 17.2143 0.27104 17.8237 0.816965C18.3334 1.2719 18.9095 1.95511 19.5347 2.84582C20.7439 4.5682 22.0735 6.96899 23.278 9.60603C23.6373 10.393 23.9744 11.1752 24.283 11.9398C27.284 12.9231 29.5046 15.1243 29.9288 17.9513C30.0333 18.6521 30.0206 19.3497 29.9051 20.0281C29.1501 23.5175 25.4385 26.41 20.7329 26.8633C20.592 26.8777 20.4495 26.8873 20.3103 26.8968C19.951 27.2257 19.3812 27.8945 19.5521 28.7182C19.7959 29.8978 20.1267 30.5715 19.1327 31.2371C18.3698 31.7479 17.4533 31.5244 16.7601 32.2843L15.4859 34.1631C15.2802 34.4839 14.9715 34.7234 14.6122 34.8415L13.7607 35.0075L12.5562 37.1273C12.4787 37.2598 12.4454 37.4147 12.4644 37.5663L12.5815 38.1537C12.599 38.3022 12.5689 38.4538 12.4961 38.5831L12.0671 39.3398C11.9912 39.4739 11.874 39.5776 11.7332 39.6383L11.1998 39.8633C11.0637 39.9208 10.9481 40.0214 10.8721 40.1507L9.10892 43.1996L8.88734 44.1031C8.81928 44.3968 8.61985 44.641 8.34603 44.7623L6.88987 45.4216C6.83131 45.4471 6.7854 45.495 6.76008 45.5541L6.5654 45.8973C6.54957 45.9372 6.54324 45.9803 6.54641 46.0218L6.72684 47.6867C6.74109 47.8192 6.71418 47.9533 6.65087 48.0698L6.4277 48.4816C6.35806 48.6093 6.24884 48.7099 6.11747 48.7674L5.67588 48.9589L3.38401 49.955C3.29696 49.9933 3.20199 50.0061 3.10861 49.9933L2.2729 49.8847L2.15103 49.7762L2.16527 49.4617L2.13678 49.3628L1.81706 49.1728L1.77433 49.2287L1.77116 49.6182L1.64137 49.6469L0.394142 48.4752C0.313419 48.3986 0.258022 48.2996 0.235865 48.1895L0.00319481 46.9955L9.36534 30.2969L9.36217 30.3001ZM22.4929 16.4429C22.9503 16.1523 23.2067 15.8107 23.1498 15.4963C23.069 15.0605 22.4074 14.7955 21.5195 14.7843C21.8614 15.3989 22.1874 15.9528 22.4929 16.4429ZM18.1434 16.4349C18.2226 16.8627 18.862 17.1261 19.7262 17.1468C19.4176 16.6248 19.1073 16.0709 18.7971 15.4915C18.3413 15.782 18.0849 16.122 18.1434 16.4365V16.4349ZM19.7436 11.2502C19.7674 11.3029 19.7911 11.3539 19.8148 11.405C20.2438 11.3747 20.6695 11.3683 21.0874 11.3811C20.9956 11.1752 20.9022 10.9677 20.8057 10.7553C19.435 7.75755 18.145 5.5962 17.1953 4.2681C17.58 5.85958 18.3714 8.2508 19.742 11.2502H19.7436Z" fill="#E8E6DD"/>
</g>
<defs>
<clipPath id="clip0_42_280">
<rect width="30" height="50" fill="white" transform="matrix(-1 0 0 1 30 0)"/>
</clipPath>
</defs>
</svg>
