<?xml version="1.0" encoding="UTF-8"?>
<svg id="Layer_2" data-name="Layer 2" xmlns="http://www.w3.org/2000/svg" viewBox="0 0 235.25 137.83">
  <defs>
    <style>
      .cls-1 {
        fill: #e8e6dd;
      }
    </style>
  </defs>
  <g id="Layer_1-2" data-name="Layer 1">
    <g>
      <g>
        <path class="cls-1" d="M.03,64.93h12.66v8.93c0,4.09,2.84,8.67,8.5,8.67s7.97-3.69,7.97-8.8c0,0,1.74-5.61-7.02-10.53-9.89-5.56-11.19-10.12-11.19-11.32v-5.93h12.64v2.64c0,1.65,3.76,4.58,6.22,5.9,2.46,1.33,6.2,3.68,8.53,6.61s3.89,6.36,3.89,12.68-3.56,18.63-21.52,18.63S.03,80.19.03,75.6v-10.67Z"/>
        <path class="cls-1" d="M95.72,64.93h12.66v8.93c0,4.09,2.84,8.67,8.5,8.67s7.97-3.69,7.97-8.8c0,0,1.74-5.61-7.02-10.53-9.89-5.56-11.19-10.12-11.19-11.32v-5.93h12.64v2.64c0,1.65,3.76,4.58,6.22,5.9,2.46,1.33,6.2,3.68,8.53,6.61,2.33,2.93,3.89,6.36,3.89,12.68s-3.56,18.63-21.52,18.63-20.68-12.21-20.68-16.8v-10.67Z"/>
        <path class="cls-1" d="M72.63,45.94c-10.82,0-13.52,5.99-13.52,5.99v-20.05h-13.04v36.55s-1.47,23.93,22.95,23.93c21.1.25,21.73-17.01,21.73-17.01v-12.84c0-3.45-3.65-16.58-18.13-16.58ZM78.73,68.95v5.38c0,.73-.77,8.16-9.81,8.16s-9.82-7.43-9.82-8.16v-10.76c0-.73.77-8.16,9.82-8.16s9.81,7.43,9.81,8.16v5.37Z"/>
        <path class="cls-1" d="M143.47,79.89s0-11.89,0-13.7.09-20.25,21.5-20.25,21.48,14.91,21.48,20.25v16.69h-12.82v-17.13c0-2.92-.68-9.95-8.67-9.95s-8.67,6.92-8.67,9.95v3.58s0,9.83,0,10.56c0,13.01,12.05,16.41,25.18,16.41l-7.17,9.44c-17.84-.88-29.88-7.69-30.83-25.85Z"/>
        <path class="cls-1" d="M213.48,45.94c-21.42,0-21.48,18.44-21.48,20.25s0,25.13,0,25.13h12.82c0-.73,0-21.99,0-21.99v-3.58c0-2.92.68-9.95,8.67-9.95,7.99,0,8.67,7.03,8.67,9.95v25.57h12.82v-25.13c0-1.81-.06-20.25-21.48-20.25"/>
      </g>
      <g>
        <path class="cls-1" d="M0,19.75c0-1.6,1.14-2.81,2.81-3.46.39-.2.88-.29,1.08-.26.36.03.39.26.26.62-.33,1.01-.39,2.06-.39,2.94,0,2.35,1.11,4.31,3.75,4.31s3.82-1.99,3.82-5.97v-9.69c-1.01-1.44-2.42-2.02-3.82-2.02-1.99,0-3.2,1.01-3.2,2.58,0,1.04.72,1.34.72,2.28s-.98,1.6-2.06,1.6c-1.4,0-2.19-1.04-2.19-2.45,0-2.74,2.58-4.99,6.2-4.99,1.73,0,3.23.55,4.34,1.66V1.57c0-.1-.13-.23-.26-.23h-1.83c-.23-.07-.33-.26-.33-.42,0-.23.07-.39.33-.49.78.03,1.8.07,2.58.1,1.27,0,1.6-.26,2.22-.26.65,0,.88.23.88.78v16.74c0,3.92-2.74,6.95-7.57,6.95-4.37,0-7.34-2.28-7.34-4.99Z"/>
        <path class="cls-1" d="M17.98,17.82c0-1.99.88-3.13,2.38-3.13,1.08,0,1.93.62,1.93,1.96,0,1.08-.56,1.6-.56,3.07,0,2.38,1.37,4.18,3.66,4.18,2.81,0,3.85-2.42,3.88-5.84.07-6.79-5.12-8.98-5.12-14.75,0-1.04.2-1.96.65-2.64.2-.36.46-.52.65-.46.2.03.29.26.29.72-.1,5.74,7.41,8.29,7.41,15.99,0,4.8-3.33,7.83-7.74,7.83s-7.44-3.04-7.44-6.92Z"/>
        <path class="cls-1" d="M54.24,24.09c0-3.3-8.26-6.17-10.54-6.17-.75,0-1.44.29-1.44,1.01,0,.36.2.59.2,1.01,0,.65-.62,1.24-1.5,1.24s-1.6-.56-1.6-1.57c0-1.4,1.53-2.38,3.75-2.32-5.12-1.57-8.39-5.03-8.39-9.73S37.27.03,41.12.03c1.5,0,3.66.69,4.37,3.13C46.18.65,48.07.03,49.58.03s3.39.59,4.11,3.13C54.47.62,56.53.03,58.16.03c3.75,0,6.27,3.1,6.27,7.34,0,3.1-1.44,5.42-3.43,6.79-.62.59-1.31,1.04-1.83,1.08-.29.07-.46,0-.52-.16-.06-.16.07-.33.29-.62.98-1.31,1.5-3.43,1.5-6.98,0-4.73-1.11-6.59-2.68-6.59-1.47,0-2.42,1.4-2.42,4.9,0,1.93.2,3.36.2,4.44,0,.75-.91.98-1.89.98-.91,0-1.89-.2-1.89-1.01,0-1.04.2-2.38.2-4.47,0-3.39-.88-4.83-2.35-4.83s-2.42,1.5-2.42,4.86c0,1.99.2,3.39.2,4.47,0,.75-.91.98-1.89.98s-1.86-.23-1.86-.98c0-1.08.16-2.51.16-4.44,0-3.46-.91-4.9-2.35-4.9-1.63,0-2.71,1.99-2.71,5.91,0,4.93,2.38,7.18,7.25,8.84l2.19.72c4.54,1.57,7.12,4.18,7.12,7.31,0,.65-.13.95-.52.95-.26,0-.52-.13-.52-.52Z"/>
        <path class="cls-1" d="M63.74,17.82c0-1.99.88-3.13,2.38-3.13,1.08,0,1.93.62,1.93,1.96,0,1.08-.56,1.6-.56,3.07,0,2.38,1.37,4.18,3.66,4.18,2.81,0,3.85-2.42,3.88-5.84.07-6.79-5.12-8.98-5.12-14.75,0-1.04.2-1.96.65-2.64.2-.36.46-.52.65-.46.2.03.29.26.29.72-.1,5.74,7.41,8.29,7.41,15.99,0,4.8-3.33,7.83-7.74,7.83s-7.44-3.04-7.44-6.92Z"/>
        <path class="cls-1" d="M81.14,19.75c0-1.6,1.14-2.81,2.81-3.46.39-.2.88-.29,1.08-.26.36.03.39.26.26.62-.33,1.01-.39,2.06-.39,2.94,0,2.35,1.11,4.31,3.75,4.31s3.82-1.99,3.82-5.97v-9.69c-1.01-1.44-2.42-2.02-3.82-2.02-1.99,0-3.2,1.01-3.2,2.58,0,1.04.72,1.34.72,2.28s-.98,1.6-2.06,1.6c-1.4,0-2.19-1.04-2.19-2.45,0-2.74,2.58-4.99,6.2-4.99,1.73,0,3.23.55,4.34,1.66V1.57c0-.1-.13-.23-.26-.23h-1.83c-.23-.07-.33-.26-.33-.42,0-.23.07-.39.33-.49.78.03,1.8.07,2.58.1,1.27,0,1.6-.26,2.22-.26.65,0,.88.23.88.78v16.74c0,3.92-2.74,6.95-7.57,6.95-4.37,0-7.34-2.28-7.34-4.99Z"/>
        <path class="cls-1" d="M104.63,23.53c-2.38-1.96-4.47-5.94-4.47-11.68,0-7.77,3.46-11.85,8-11.85s7.96,4.08,7.96,11.85c0,5.74-2.12,9.73-4.5,11.65-.62.62-1.14.91-1.47.98-.29.07-.59-.07-.59-.33,0-.2.13-.36.36-.65,1.24-1.66,2.25-5.19,2.25-11.52,0-8.52-1.47-11.13-4.01-11.13s-4.08,2.61-4.08,11.13c0,6.3,1.01,9.86,2.28,11.52.2.29.33.46.33.65,0,.23-.26.39-.59.33-.39-.07-.91-.46-1.47-.95Z"/>
        <path class="cls-1" d="M120.53,16.68V1.57c0-.13-.13-.23-.26-.23h-1.83c-.26-.1-.29-.26-.29-.46s.07-.36.29-.46c.88.03,2.12.1,2.74.1.85,0,1.5-.26,2.15-.26.55,0,.78.26.78.78v15.7c0,5.06,1.31,7.15,3.82,7.15,2.64,0,3.79-1.96,3.79-4.83,0-3.43-2.32-4.77-2.32-8.09,0-.75.23-1.47.59-2.02.26-.39.55-.59.78-.55.29.03.26.36.26.88,0,3.2,4.67,4.54,4.67,9.14,0,3.26-3.36,6.33-7.77,6.33s-7.41-3.17-7.41-8.06Z"/>
      </g>
      <g>
        <path class="cls-1" d="M99.54,129.6c0-4.7,3.39-8.22,7.9-8.22.16,0,.29,0,.46.03,1.37-.82,1.99-2.09,1.99-4.11s-.82-3.43-2.64-3.43c-1.63,0-2.64.95-2.64,1.96,0,.65.42,1.08.42,1.79,0,1.01-.88,1.57-2.02,1.57-1.34,0-1.96-.91-1.96-2.02,0-2.32,2.94-4.08,6.36-4.08s6.01,1.73,6.01,4.31c0,2.15-2.15,3.43-4.44,4.11,3.72.72,6.4,3.92,6.4,8.09,0,4.7-3.43,8.23-7.93,8.23s-7.9-3.53-7.9-8.23ZM111.35,129.57c0-5.32-1.27-7.31-3.92-7.31s-3.88,1.99-3.88,7.31,1.24,7.41,3.88,7.41,3.92-2.06,3.92-7.41Z"/>
        <path class="cls-1" d="M117.36,130.91c0-1.99.88-3.13,2.38-3.13,1.08,0,1.93.62,1.93,1.96,0,1.08-.55,1.6-.55,3.07,0,2.38,1.37,4.18,3.66,4.18,2.81,0,3.85-2.42,3.88-5.84.07-6.79-5.12-8.98-5.12-14.75,0-1.04.2-1.96.65-2.64.2-.36.46-.52.65-.46.2.03.29.26.29.72-.1,5.74,7.41,8.29,7.41,15.99,0,4.8-3.33,7.83-7.74,7.83s-7.44-3.04-7.44-6.92Z"/>
        <path class="cls-1" d="M135.02,129.63c0-4.77,3.26-8.26,7.31-8.26,1.76,0,3.26.62,4.31,1.76v-4.8c0-2.64-1.11-4.44-3.59-4.44-1.86,0-3.3.88-3.3,2.02,0,.78.62,1.14.62,1.99,0,1.01-.98,1.63-2.09,1.63-1.34,0-2.09-.95-2.09-2.15,0-2.42,3.07-4.31,6.98-4.31,4.28,0,7.08,2.12,7.08,6.04v10.64c0,4.77-2.84,8.06-7.41,8.06s-7.83-3.46-7.83-8.19ZM142.82,136.98c2.68,0,3.82-2.02,3.82-7.34v-5.12c-.91-1.47-2.32-2.15-3.79-2.15-2.48,0-3.82,1.96-3.82,7.41s1.11,7.21,3.79,7.21Z"/>
        <path class="cls-1" d="M156.72,130.64c0-2.77,1.18-4.8,2.48-6.66-3.56-.39-6.07-2.35-6.07-5.48,0-2.97,2.38-5.42,6.63-5.42,3.98,0,6.27,2.09,6.27,4.83,0,1.31-.55,2.48-1.31,3.66,4.28-.1,7.21,2.68,7.21,7.87,0,5.48-3.49,8.39-7.7,8.39-3.82,0-7.51-2.42-7.51-7.18ZM159.59,123.4c1.37-1.93,2.68-3.75,2.68-6.14,0-2.51-1.17-3.36-2.58-3.36-1.57,0-2.71,1.14-2.71,4.47s.78,4.6,2.61,5.03ZM164.23,136.98c2.38,0,3.72-1.73,3.72-7.64,0-5.32-1.44-7.18-3.72-7.05-1.63,2.35-3.79,4.96-3.79,9.27,0,3.95,1.57,5.42,3.79,5.42Z"/>
        <path class="cls-1" d="M179.01,136.62c-2.38-1.96-4.47-5.94-4.47-11.68,0-7.77,3.46-11.85,8-11.85s7.96,4.08,7.96,11.85c0,5.74-2.12,9.73-4.5,11.65-.62.62-1.14.91-1.47.98-.29.07-.59-.07-.59-.33,0-.2.13-.36.36-.65,1.24-1.67,2.25-5.19,2.25-11.52,0-8.52-1.47-11.13-4.01-11.13s-4.08,2.61-4.08,11.13c0,6.3,1.01,9.86,2.28,11.52.2.29.33.46.33.65,0,.23-.26.39-.59.33-.39-.07-.91-.46-1.47-.95Z"/>
        <path class="cls-1" d="M198.69,136.98c-2.68-1.31-4.86-4.11-4.86-9.73,0-6.04,1.83-11.62,10.51-12.27l3-.16c1.93-.16,2.94-.42,3.04-1.14.03-.39.2-.52.42-.52.33,0,.46.2.42.69,0,2.42-1.4,4.01-5.22,4.24l-2.87.2c-5.35.42-7.57,2.74-8.26,6.69,1.08-2.32,3.23-3.49,5.65-3.49,1.79,0,3.75.72,4.54,3.26.85-2.58,2.91-3.26,4.67-3.26,3.98,0,6.59,2.97,6.59,7.47,0,4.08-2.29,6.79-4.86,8.03-.62.36-1.14.55-1.5.59-.29.07-.49-.03-.56-.2-.06-.16.07-.33.33-.55,1.4-1.24,2.61-3.3,2.61-7.54,0-5.16-1.11-6.95-2.97-6.95-1.7,0-2.61,1.47-2.61,4.67,0,1.66.23,3.1.23,4.34,0,.59-.95.88-1.89.88s-1.93-.29-1.93-.88c0-1.24.2-2.68.2-4.34,0-3.17-.88-4.67-2.58-4.67-1.86,0-2.97,1.83-2.97,6.95,0,4.21,1.21,6.33,2.64,7.57.23.2.36.33.29.52-.07.16-.23.26-.56.2-.36-.03-.85-.23-1.5-.59Z"/>
        <path class="cls-1" d="M223.76,136.62c-2.38-1.96-4.47-5.94-4.47-11.68,0-7.77,3.46-11.85,8-11.85s7.96,4.08,7.96,11.85c0,5.74-2.12,9.73-4.5,11.65-.62.62-1.14.91-1.47.98-.29.07-.59-.07-.59-.33,0-.2.13-.36.36-.65,1.24-1.67,2.25-5.19,2.25-11.52,0-8.52-1.47-11.13-4.01-11.13s-4.08,2.61-4.08,11.13c0,6.3,1.01,9.86,2.29,11.52.2.29.33.46.33.65,0,.23-.26.39-.59.33-.39-.07-.91-.46-1.47-.95Z"/>
      </g>
    </g>
  </g>
</svg>