<?xml version="1.0" encoding="UTF-8"?>
<svg id="Layer_2" data-name="Layer 2" xmlns="http://www.w3.org/2000/svg" viewBox="0 0 175.55 137.22">
  <defs>
    <style>
      .cls-1 {
        fill: #e8e6dd;
      }
    </style>
  </defs>
  <g id="Layer_1-2" data-name="Layer 1">
    <g>
      <g>
        <path class="cls-1" d="M0,12.04C0,4.69,4.31,0,9.12,0c1.96,0,3.2.63,4.34,1.3.38.19.7.38.98.38.38,0,.48-.25.48-.57V.48c.03-.19.13-.29.35-.29.19,0,.32.13.38.25l.29,7.98c-.1.22-.25.25-.44.25-.16,0-.32-.03-.41-.25l-.1-1.46c-.25-3.2-2.41-6.15-5.64-6.15-3.67,0-5.45,3.36-5.45,11.25s1.87,11.12,5.64,11.12c3.23,0,5.26-3.07,5.45-6.49l.1-1.62c.09-.19.25-.25.44-.25.16,0,.32.06.41.25l-.22,8.46c-.03.16-.16.29-.35.29s-.32-.1-.35-.29v-.67c0-.35-.09-.57-.48-.57-.35,0-.63.19-1.05.44-1.24.67-2.53,1.27-4.37,1.27C4.25,24.01,0,19.54,0,12.04Z"/>
        <path class="cls-1" d="M18.78,23.16c0-.16.06-.35.25-.48h2.25c.13,0,.22-.09.22-.22V1.52c0-.13-.09-.22-.22-.22h-2.25c-.19-.1-.25-.25-.25-.41,0-.19.06-.35.25-.44l4.21.06,4.18-.06c.22.1.29.25.29.44,0,.16-.06.32-.29.41h-2.22c-.13,0-.22.09-.22.22v20.94c0,.13.09.22.22.22h2.22c.22.13.29.32.29.48s-.06.35-.29.41l-4.18-.06-4.21.06c-.19-.06-.25-.25-.25-.41Z"/>
        <path class="cls-1" d="M33.26,23.16c0-.16.06-.35.29-.44h2.53c.13,0,.22-.09.22-.22V1.52c0-.13-.09-.22-.22-.22l-1.93.06c-2.5.16-3.23,1.96-3.42,4.31l-.13,1.81c-.1.19-.25.29-.41.29-.19,0-.35-.09-.41-.29l.16-6.87c0-.13.1-.22.19-.22l7.92.13,7.92-.13c.13,0,.22.1.22.22l.16,6.87c-.1.19-.25.29-.44.29-.16,0-.32-.09-.41-.29l-.13-1.81c-.16-2.34-.92-4.15-3.42-4.31l-1.93-.06c-.13,0-.22.09-.22.22v20.97c0,.13.1.22.22.22h2.57c.19.1.25.29.25.44s-.06.35-.25.44l-4.53-.1-4.5.1c-.22-.1-.29-.29-.29-.44Z"/>
        <path class="cls-1" d="M52.61,23.16c0-.19.06-.35.25-.48h2.25c.13,0,.22-.09.22-.22v-9.15l-5.48-11.75c-.1-.16-.16-.25-.32-.25h-1.74c-.19-.1-.29-.25-.29-.41,0-.19.1-.35.29-.44l4.15.06,4.24-.06c.19.1.29.25.29.44,0,.16-.1.32-.29.41h-2.34c-.16,0-.25.09-.25.25,0,.09.16.38.32.76l4.31,9.53,4.31-9.34c.13-.32.25-.54.25-.7,0-.29-.22-.51-.48-.51h-2.15c-.19-.1-.28-.25-.28-.41,0-.19.09-.35.28-.44l3.23.06,2.85-.06c.22.1.29.25.29.44,0,.16-.06.32-.29.41h-1.55c-.38,0-.67.19-.85.6l-5,10.74v9.82c0,.13.06.22.22.22h2.22c.22.13.29.29.29.48s-.06.35-.29.41l-4.18-.06-4.21.06c-.19-.06-.25-.22-.25-.41Z"/>
        <path class="cls-1" d="M69.97,3.61c-.92,0-1.58-.73-1.58-1.71s.73-1.84,1.81-1.84c1.36,0,2.6,1.36,2.6,3.45,0,1.74-.82,3.26-2.44,4.34-.16.13-.6.41-.76.41-.19,0-.35-.29-.35-.44,0-.1.09-.19.29-.29,1.74-1.14,2.34-2.41,2.34-3.71,0-.7-.25-1.14-.48-1.3-.06.41-.57,1.08-1.43,1.08Z"/>
        <path class="cls-1" d="M76.43,15.46c.16,0,.35.1.41.29l.09,1.33c.29,3.26,2.57,6.11,5.89,6.11,2.72,0,4.31-1.87,4.31-4.69,0-2.22-1.08-3.33-3.01-4.15l-3.52-1.52c-3.17-1.33-4.47-3.61-4.47-6.43,0-3.8,2.79-6.4,6.24-6.4,1.77,0,3.2.7,4.4,1.36.35.19.73.38,1.01.38.44,0,.54-.25.54-.7v-.51c.03-.22.13-.35.35-.35.19,0,.32.13.38.25v7.25c-.09.22-.28.29-.44.29s-.32-.06-.41-.29l-.06-.85c-.19-3.23-2.69-6.02-5.67-6.02-2.25,0-3.58,1.9-3.58,4.18s.95,3.26,2.69,4.02l3.67,1.55c3.45,1.49,4.62,3.74,4.62,6.65,0,4.43-3.17,6.78-6.87,6.78-1.96,0-3.42-.7-4.75-1.36-.32-.19-.73-.38-1.01-.38-.41,0-.54.25-.54.7v.57c-.03.22-.16.35-.35.35s-.32-.13-.35-.29v-7.86c.06-.19.25-.29.41-.29Z"/>
      </g>
      <g>
        <path class="cls-1" d="M60.23,136.37c0-.19.06-.35.25-.48h1.46c.41,0,.73-.22.85-.7l6.68-21.32c.09-.32.29-.47.63-.47s.54.16.63.47l6.78,21.76c.06.16.13.25.29.25h1.71c.19.13.29.29.29.48s-.06.35-.29.41l-3.74-.06-4.5.06c-.19-.06-.29-.22-.29-.41s.09-.35.29-.48h2.5c.13,0,.19-.09.19-.19s-.13-.51-.19-.76l-1.93-6.49h-5.96l-1.93,6.3c-.1.29-.19.47-.19.63,0,.29.25.51.57.51h2.06c.19.13.29.25.29.48,0,.19-.06.35-.29.41l-3.26-.06-2.66.06c-.19-.06-.25-.22-.25-.41ZM71.57,127.56l-2.63-8.84-2.72,8.84h5.35Z"/>
        <path class="cls-1" d="M86.11,114.1c0,.16-.06.32-.25.41h-2.57c-.16,0-.22.09-.22.19,0,.13.13.44.22.79l4.69,16.09,4.72-15.87c.1-.29.16-.51.16-.67,0-.29-.22-.54-.51-.54h-2.25c-.16-.09-.25-.22-.25-.41s.09-.35.25-.44l3.45.06,2.69-.06c.19.1.29.25.29.44s-.09.32-.29.41h-1.52c-.41,0-.73.25-.85.76l-6.46,21.35c-.09.32-.29.48-.63.48s-.51-.16-.63-.48l-6.62-21.83c-.06-.19-.13-.29-.28-.29h-1.77c-.19-.09-.29-.25-.29-.41,0-.19.09-.35.29-.44l3.8.06,4.59-.06c.19.1.25.22.25.44Z"/>
        <path class="cls-1" d="M97.44,136.37c0-.16.06-.35.25-.48h2.25c.13,0,.22-.09.22-.22v-20.94c0-.13-.09-.22-.22-.22h-2.25c-.19-.09-.25-.25-.25-.41,0-.19.06-.35.25-.44l4.21.06,10.55-.13c.09,0,.19.1.19.22l.29,6.68c-.06.19-.25.25-.41.25s-.32-.06-.41-.25l-.13-1.36c-.25-2.91-1.2-4.5-4.12-4.56l-3.99-.06c-.13,0-.22.09-.22.22v9.95l2.15-.1c1.68-.06,2.47-.79,2.47-2.47v-.73c.1-.19.25-.25.41-.25s.35.06.41.25l-.06,3.74.06,3.77c-.06.22-.25.29-.41.29s-.32-.06-.41-.29v-.95c0-1.58-.82-2.25-2.47-2.34l-2.15-.13v9.92c0,.32.22.54.57.54l4.37-.06c3.01-.06,4.05-1.71,4.18-4.78l.1-1.71c.09-.19.25-.29.41-.29s.35.1.44.29l-.22,7.22c0,.16-.1.25-.22.25l-11.37-.13-4.21.06c-.19-.06-.25-.25-.25-.41Z"/>
        <path class="cls-1" d="M116.35,136.37c0-.19.06-.35.25-.48h2.09c.35,0,.63-.32.63-.76v-18.37c0-1.3-.63-2.25-1.46-2.25h-1.74c-.19-.09-.25-.25-.25-.41,0-.19.06-.35.25-.44l3.86.06,1.58-.06c.35-.03.57.22.76.51l9.73,15.9c.09.19.19.29.35.29.13,0,.25-.09.25-.32v-14.73c0-.44-.29-.79-.63-.79h-2.38c-.19-.09-.25-.25-.25-.41,0-.22.06-.35.25-.44l3.52.06,3.17-.06c.22.1.29.22.29.44,0,.16-.06.32-.29.41h-2.06c-.38,0-.63.35-.63.79v21.13c0,.38-.19.67-.57.67-.29,0-.54-.13-.82-.57l-11.4-18.56c-.1-.13-.16-.22-.29-.22-.16,0-.29.13-.29.35v17.04c0,.44.29.76.63.76h2.38c.22.13.29.29.29.48s-.06.35-.29.41l-3.48-.06-3.2.06c-.19-.06-.25-.22-.25-.41Z"/>
        <path class="cls-1" d="M146.63,114.1c0,.16-.06.32-.25.41h-2.22c-.13,0-.22.09-.22.25v14.57c0,5.2,2.09,6.72,4.66,6.72,3.58,0,5.51-2.88,5.51-6.97v-13.78c0-.44-.29-.79-.63-.79h-1.9c-.22-.09-.29-.25-.29-.41,0-.22.06-.35.29-.44l3.01.06,2.79-.06c.19.06.25.22.25.44,0,.16-.06.32-.25.41h-1.65c-.38,0-.63.35-.63.79v13.75c0,4.47-2.03,8.17-7.29,8.17-3.52,0-7.38-1.68-7.38-7.95v-14.51c0-.16-.06-.25-.22-.25h-2.06c-.22-.09-.29-.25-.29-.41,0-.22.1-.38.29-.44l4.02.06,4.21-.06c.19.06.25.22.25.44Z"/>
        <path class="cls-1" d="M159.27,136.37c0-.16.06-.35.25-.48h2.25c.13,0,.22-.09.22-.22v-20.94c0-.13-.09-.22-.22-.22h-2.25c-.19-.09-.25-.25-.25-.41,0-.19.06-.35.25-.44l4.21.06,10.55-.13c.09,0,.19.1.19.22l.29,6.68c-.06.19-.25.25-.41.25s-.32-.06-.41-.25l-.13-1.36c-.25-2.91-1.2-4.5-4.12-4.56l-3.99-.06c-.13,0-.22.09-.22.22v9.95l2.15-.1c1.68-.06,2.47-.79,2.47-2.47v-.73c.1-.19.25-.25.41-.25s.35.06.41.25l-.06,3.74.06,3.77c-.06.22-.25.29-.41.29s-.32-.06-.41-.29v-.95c0-1.58-.82-2.25-2.47-2.34l-2.15-.13v9.92c0,.32.22.54.57.54l4.37-.06c3.01-.06,4.05-1.71,4.18-4.78l.1-1.71c.09-.19.25-.29.41-.29s.35.1.44.29l-.22,7.22c0,.16-.1.25-.22.25l-11.37-.13-4.21.06c-.19-.06-.25-.25-.25-.41Z"/>
      </g>
      <g>
        <polygon class="cls-1" points="37.95 71.96 37.78 71.96 12.98 32.09 0 32.09 0 91.51 12.23 91.51 12.23 51.73 12.4 51.73 37.12 91.51 50.18 91.51 50.18 32.09 37.95 32.09 37.95 71.96"/>
        <path class="cls-1" d="M97.38,54.23c-1.78-2.44-4.07-4.38-6.84-5.82-2.78-1.44-6.03-2.17-9.77-2.17-3.34,0-6.39.6-9.14,1.79-2.75,1.19-5.11,2.82-7.1,4.89-1.98,2.07-3.51,4.52-4.59,7.35-1.08,2.83-1.62,5.89-1.62,9.18s.52,6.52,1.57,9.35c1.05,2.83,2.54,5.27,4.46,7.31,1.93,2.04,4.28,3.61,7.05,4.72,2.78,1.1,5.89,1.66,9.35,1.66,4.99,0,9.24-1.13,12.75-3.4,3.51-2.27,6.12-6.03,7.82-11.3h-10.62c-.4,1.36-1.47,2.65-3.23,3.87-1.76,1.22-3.85,1.83-6.29,1.83-3.4,0-6.01-.88-7.82-2.63-1.81-1.76-2.8-4.59-2.98-8.5h31.7c.23-3.4-.06-6.66-.85-9.77-.79-3.12-2.08-5.89-3.87-8.33ZM70.4,64.68c.06-.85.24-1.81.55-2.89.31-1.08.85-2.1,1.62-3.06.76-.96,1.78-1.77,3.06-2.42,1.27-.65,2.87-.98,4.8-.98,2.94,0,5.14.79,6.59,2.38,1.44,1.59,2.45,3.91,3.02,6.97h-19.63Z"/>
        <polygon class="cls-1" points="154.41 76.86 154.23 76.86 146.51 46.15 134.4 46.15 126.86 76.95 126.68 76.95 118.35 46.15 105.19 46.15 119.58 91.51 132.47 91.51 140.19 61.07 140.37 61.07 148.44 91.51 161.25 91.51 175.55 46.15 162.74 46.15 154.41 76.86"/>
      </g>
    </g>
  </g>
</svg>