<svg width="165" height="27" viewBox="0 0 165 27" fill="none" xmlns="http://www.w3.org/2000/svg">
<g clip-path="url(#clip0_40_13)">
<path d="M16.0042 0L25.9178 27H19.8645L17.8585 20.9878H7.94255L5.86408 27H0L10.0257 0H16.0042ZM16.3405 16.5643L12.9986 6.65665H12.9239L9.46987 16.5643H16.3405Z" fill="#E8E6DD"/>
<path d="M30.6967 26.9996L24.125 7.44824H29.6575L33.7046 20.7972H33.7794L37.8265 7.44824H43.0624L36.5631 26.9996H30.6967Z" fill="#E8E6DD"/>
<path d="M50.8959 21.8197C51.6876 22.6022 52.8273 22.9922 54.3125 22.9922C55.3775 22.9922 56.2929 22.7211 57.0613 22.1789C57.8296 21.6366 58.299 21.0635 58.4718 20.4594H63.1145C62.3719 22.8043 61.2322 24.481 59.6979 25.4893C58.1635 26.4977 56.3069 27.0019 54.128 27.0019C52.6171 27.0019 51.2556 26.7569 50.0435 26.2646C48.8315 25.7724 47.8039 25.0732 46.9608 24.167C46.1178 23.2586 45.4685 22.1765 45.0108 20.9136C44.5531 19.6532 44.3242 18.2667 44.3242 16.7541C44.3242 15.2416 44.5601 13.9312 45.0295 12.6707C45.4989 11.4102 46.1668 10.321 47.0356 9.40064C47.902 8.48027 48.9342 7.75491 50.1369 7.22694C51.3373 6.6966 52.6684 6.43262 54.128 6.43262C55.7628 6.43262 57.185 6.75368 58.3994 7.3958C59.6115 8.03792 60.6087 8.90359 61.3887 9.98569C62.1687 11.0702 62.7315 12.3045 63.0771 13.691C63.4228 15.0775 63.5465 16.5282 63.4485 18.0407H49.5975C49.6722 19.7792 50.1042 21.0421 50.8982 21.8221L50.8959 21.8197ZM56.8557 11.5339C56.2229 10.8276 55.2654 10.4756 53.9786 10.4756C53.1355 10.4756 52.4372 10.6207 51.8791 10.9108C51.3233 11.201 50.8772 11.5601 50.5433 11.9882C50.2093 12.4162 49.9734 12.8705 49.838 13.3485C49.7025 13.8265 49.6208 14.257 49.5975 14.6351H58.1752C57.9277 13.2748 57.4886 12.2402 56.8581 11.5339H56.8557Z" fill="#E8E6DD"/>
<path d="M72.2554 20.9043H66.2676V27.0021H72.2554V20.9043Z" fill="#E8E6DD"/>
<path d="M99.379 18.1149H99.3043L88.2393 0H82.4453V27H87.9054V8.92548H87.9801L99.0077 27H104.839V0H99.379V18.1149Z" fill="#E8E6DD"/>
<path d="M125.541 9.98373C124.761 8.89926 123.764 8.03597 122.552 7.39385C121.337 6.75172 119.915 6.43066 118.28 6.43066C116.818 6.43066 115.49 6.69465 114.289 7.22499C113.089 7.75534 112.054 8.47832 111.188 9.39869C110.321 10.3191 109.654 11.4107 109.182 12.6688C108.712 13.9292 108.477 15.2919 108.477 16.7522C108.477 18.2124 108.705 19.6512 109.163 20.9117C109.621 22.1721 110.27 23.2566 111.113 24.1627C111.954 25.0712 112.981 25.7704 114.196 26.2627C115.41 26.755 116.769 26.9999 118.28 26.9999C120.459 26.9999 122.316 26.4958 123.85 25.4874C125.385 24.479 126.524 22.8024 127.267 20.4574H122.624C122.451 21.0615 121.98 21.637 121.214 22.1769C120.445 22.7191 119.53 22.9902 118.465 22.9902C116.98 22.9902 115.84 22.6002 115.048 21.8178C114.254 21.0377 113.822 19.7749 113.747 18.0364H127.598C127.697 16.5239 127.573 15.0731 127.227 13.6866C126.882 12.3001 126.316 11.0658 125.539 9.98136L125.541 9.98373ZM113.75 14.6355C113.773 14.2574 113.855 13.8293 113.99 13.3489C114.126 12.8709 114.362 12.4167 114.696 11.9886C115.03 11.5605 115.476 11.2014 116.031 10.9112C116.587 10.6211 117.288 10.476 118.131 10.476C119.418 10.476 120.378 10.8304 121.008 11.5343C121.639 12.2407 122.078 13.2728 122.325 14.6355H113.747H113.75Z" fill="#E8E6DD"/>
<path d="M149.771 20.686H149.696L146.429 7.45117H141.306L138.111 20.7241H138.036L134.51 7.45117H128.938L135.028 27.0002H140.488L143.755 13.8795H143.83L147.247 27.0002H152.667L158.72 7.45117H153.3L149.771 20.686Z" fill="#E8E6DD"/>
<path d="M163.552 8.82581C163.681 8.71403 163.746 8.54042 163.746 8.3026C163.746 8.03386 163.667 7.84122 163.508 7.72231C163.349 7.6034 163.113 7.54395 162.798 7.54395H161.812V10.1885H162.24V9.05888H162.642L163.312 10.1885H163.795L163.067 9.02558C163.258 9.00418 163.419 8.93759 163.55 8.82819L163.552 8.82581ZM162.716 8.68549H162.24V7.91257H162.754C162.817 7.91257 162.88 7.91495 162.947 7.92208C163.013 7.92922 163.074 7.94349 163.13 7.96965C163.183 7.99581 163.228 8.03148 163.265 8.07905C163.3 8.12661 163.319 8.19082 163.319 8.27168C163.319 8.36919 163.302 8.44529 163.267 8.49761C163.235 8.54994 163.19 8.59274 163.137 8.62128C163.083 8.6522 163.02 8.66885 162.945 8.67598C162.873 8.68312 162.796 8.68549 162.716 8.68549Z" fill="#E8E6DD"/>
<path d="M164.815 7.84138C164.692 7.54648 164.526 7.29676 164.313 7.08748C164.103 6.8782 163.858 6.71648 163.58 6.60232C163.302 6.48817 163.01 6.42871 162.704 6.42871C162.398 6.42871 162.099 6.48579 161.819 6.60232C161.539 6.71648 161.294 6.8782 161.081 7.08748C160.871 7.29676 160.703 7.54648 160.579 7.84138C160.455 8.13628 160.395 8.46209 160.395 8.81883C160.395 9.17556 160.453 9.47522 160.567 9.76774C160.682 10.0603 160.841 10.3124 161.044 10.524C161.247 10.7381 161.49 10.9045 161.772 11.0258C162.055 11.1471 162.366 11.2089 162.704 11.2089C163.01 11.2089 163.302 11.1519 163.58 11.0353C163.858 10.9212 164.103 10.7595 164.313 10.5502C164.526 10.3409 164.692 10.0912 164.815 9.79628C164.939 9.50376 165 9.17556 165 8.81883C165 8.46209 164.937 8.13628 164.815 7.84138ZM164.36 9.62029C164.269 9.86049 164.14 10.0674 163.977 10.2434C163.814 10.4194 163.624 10.5526 163.407 10.6501C163.19 10.7452 162.954 10.7928 162.704 10.7928C162.424 10.7928 162.174 10.7404 161.95 10.6358C161.728 10.5312 161.539 10.3908 161.382 10.2101C161.226 10.0317 161.104 9.82244 161.02 9.58462C160.936 9.34679 160.894 9.08995 160.894 8.81883C160.894 8.52868 160.941 8.26232 161.032 8.01974C161.123 7.77717 161.252 7.56788 161.415 7.39427C161.579 7.22066 161.77 7.0851 161.99 6.98759C162.209 6.89246 162.447 6.8449 162.702 6.8449C162.956 6.8449 163.188 6.89246 163.405 6.98759C163.622 7.08272 163.811 7.21828 163.975 7.39427C164.138 7.56788 164.264 7.77717 164.358 8.01974C164.449 8.26232 164.495 8.52868 164.495 8.81883C164.495 9.10897 164.449 9.38009 164.358 9.62029H164.36Z" fill="#E8E6DD"/>
</g>
<defs>
<clipPath id="clip0_40_13">
<rect width="165" height="27" fill="white"/>
</clipPath>
</defs>
</svg>
